<svg id="图层_1" data-name="图层 1" xmlns="http://www.w3.org/2000/svg" viewBox="0 0 200 200"><defs><style>.cls-1{fill:#585858;}</style></defs><title>富</title><rect class="cls-1" x="81.19" y="95.68" width="37.65" height="1.78"/><rect class="cls-1" x="105.68" y="126.45" width="15.83" height="2"/><rect class="cls-1" x="78.09" y="117.13" width="15.83" height="2"/><rect class="cls-1" x="78.09" y="126.45" width="15.83" height="2"/><rect class="cls-1" x="105.68" y="117.13" width="15.83" height="2"/><path class="cls-1" d="M99.76,19l-70,40.39v80.77l70,40.39,70-40.39V59.36Zm33.51,110.51-7.47,7.77H66.33V108.11h66.94Zm-2.66-43V98.94l-6.51,7.54H69.51v-20ZM79.27,84.66l4.14-7.47h36v7.47Zm54.29-.44H121.8V75.34h-44v8.88H66V65.43H93.62l11.69-3.18v3.18h28.25Z"/></svg>